<svg xmlns="http://www.w3.org/2000/svg" width="32" height="32" id="injection"><g transform="translate(-51.52 -1016.362)"><path fill="#d8e1eb" d="m59.035 1030.948 7.072-7.071 12.728 12.728-2.122 4.95-4.95 2.12z"></path><path fill="#5bdadd" d="m76.36 1041.201 2.12-4.95-4.48-4.41-10 4 7.41 7.481z"></path><path fill="#fff" d="m72.54 1032.432-7.14-7.14 1.06-1.062 7.588 7.588"></path><path fill="#66f3f6" d="m76.713 1041.554 2.121-4.95-4.785-4.785-1.516.605 4.887 4.888-1.06 3.889c.862.626.033.269.353.354z"></path><path fill="none" stroke="#66f3f6" stroke-linecap="round" stroke-linejoin="round" d="m75.652 1037.665-3.87-3.87"></path><path fill="none" stroke="#a1b4c5" stroke-linecap="round" stroke-linejoin="round" d="m69.222 1031.235-2.055-2.055m-1.414-1.414-.332-.332"></path><path fill="#2667ac" d="m56.914 1025.999 4.243-4.243 3.535 3.535-4.242 4.243z"></path><path fill="none" stroke="#373449" stroke-linecap="round" stroke-linejoin="round" d="m55.5 1027.412 7.071-7.07m-4.95 12.02 9.9-9.9m9.192 19.093 2.829 2.828"></path><path fill="none" stroke="#373449" d="m68.228 1025.998-2.121 2.122m4.242 0-2.121 2.12m4.243 0-2.122 2.122m4.243 0-2.121 2.121m4.242 0-2.121 2.122"></path><path fill="#2e7dd0" d="m63.985 1025.291-2.828-2.828-.707.707 2.828 2.828.707-.707z"></path><path fill="none" stroke="#373449" stroke-linecap="round" stroke-linejoin="round" d="m59.035 1030.948 7.072-7.071 12.728 12.728-2.122 4.95-4.95 2.12z"></path><path fill="none" stroke="#373449" stroke-linecap="round" stroke-linejoin="round" d="m56.914 1025.999 4.243-4.243 3.535 3.535-4.242 4.243z"></path><circle cx="17" cy="11" r="1" fill="#66f3f6" transform="rotate(135 -168.967 536.412)"></circle><path fill="#66f3f6" d="M69.025 1033.827a.5.5 0 0 1-.276.65.5.5 0 0 1-.65-.274"></path><circle cx="17" cy="11" r="1" fill="#66f3f6" transform="rotate(135 -173.089 536.362) scale(.5)"></circle><circle cx="17" cy="11" r="1" fill="#66f3f6" transform="rotate(135 -173.624 533.655) scale(.5)"></circle><path fill="#a1b4c5" d="M66.123 1037.3c-6.364-6.366-4.954-7.782-.018-12.718l-6.364 6.364z"></path><path fill="#05497d" d="M60.448 1028.825c-2.114-2.114-2.119-3.539.707-6.364l-3.536 3.535z"></path></g></svg>