<svg xmlns="http://www.w3.org/2000/svg" viewBox="0 0 50 50" id="http"><path fill="#E7E3E6" d="M45.48 40.456H4.52A3.52 3.52 0 0 1 1 36.936V4.52A3.52 3.52 0 0 1 4.52 1h40.96A3.52 3.52 0 0 1 49 4.52v32.415a3.52 3.52 0 0 1-3.52 3.52z"></path><path fill="#53B1E2" d="M49 8.026V4.521A3.52 3.52 0 0 0 45.48 1H4.52A3.52 3.52 0 0 0 1 4.52v3.506h48z"></path><path fill="#E7E3E6" d="M17.065 8.674H4.45v-2.72c0-.675.547-1.223 1.223-1.223H15.84c.676 0 1.224.548 1.224 1.224v2.719z"></path><path fill="#D2D2D2" d="M29.678 8.026H17.065V5.955c0-.676.547-1.224 1.223-1.224h10.167c.676 0 1.223.548 1.223 1.224v2.071z"></path><circle cx="44.545" cy="4.815" r="1.35" fill="#E7E3E6"></circle><circle cx="40.43" cy="4.815" r="1.35" fill="#E7E3E6"></circle><circle cx="36.314" cy="4.815" r="1.35" fill="#E7E3E6"></circle><path fill="#656766" d="M12.99 19.936v-2.713H9.763v2.713H8.677v-6.199h1.087v2.529h3.225v-2.529h1.088v6.2h-1.088zm4.348 0v-5.24H15.46v-.959h4.843v.958h-1.878v5.241h-1.087zm5.827 0v-5.24h-1.878v-.959h4.842v.958h-1.877v5.241h-1.087zm4.348 0v-6.199h2.733c1.3 0 2.017.884 2.017 1.943 0 1.05-.725 1.933-2.017 1.933H28.6v2.323h-1.088zm3.634-4.256c0-.595-.436-.985-1.05-.985h-1.496v1.961h1.496c.614 0 1.05-.39 1.05-.976zm1.83 4.442 2.203-6.57h.725l-2.203 6.57h-.725zm3.857-.186v-.864c2.407-1.821 3.355-2.62 3.355-3.522 0-.651-.567-.939-1.134-.939-.725 0-1.273.288-1.672.734l-.633-.706c.549-.669 1.422-.994 2.296-.994 1.199 0 2.24.67 2.24 1.905 0 1.152-1.05 2.175-2.705 3.429h2.742v.957h-4.489z"></path><circle cx="25" cy="37" r="11.999" fill="#656766"></circle><circle cx="25" cy="37" r="9.589" fill="#FFF"></circle><path fill="#85BD57" d="M16.974 37h2.442A5.59 5.59 0 0 1 25 31.53v-2.442c-4.397 0-7.959 3.532-8.026 7.912z"></path><path fill="#EC6E62" d="M25 29.088v2.442A5.59 5.59 0 0 1 30.584 37h2.442c-.067-4.38-3.63-7.912-8.026-7.912z"></path><path fill="#656766" d="M24.906 38.01a.709.709 0 1 1-.962-1.032s3.67-2.895 3.887-2.663c.217.232-2.925 3.694-2.925 3.694z"></path><circle cx="25.062" cy="36.935" r="1.155" fill="#4E4C4D"></circle><circle cx="25.062" cy="36.935" r=".573" fill="#656766"></circle><path fill="#E7E3E6" d="M21.087 42.689a.684.684 0 0 1-.684-.684v-.782a.684.684 0 0 1 1.368 0v.782a.684.684 0 0 1-.684.684zm2.609 0a.684.684 0 0 1-.684-.684v-.782a.684.684 0 0 1 1.368 0v.782a.684.684 0 0 1-.684.684zm2.608 0a.684.684 0 0 1-.684-.684v-.782a.684.684 0 0 1 1.368 0v.782a.684.684 0 0 1-.684.684zm2.609 0a.684.684 0 0 1-.684-.684v-.782a.684.684 0 0 1 1.368 0v.782a.684.684 0 0 1-.684.684z"></path></svg>